<svg width="24" height="24" viewBox="0 0 24 24" fill="none" xmlns="http://www.w3.org/2000/svg">
<path d="M16 21V20V21ZM4 21L4 22L4 21ZM3 20H4H3ZM3 11L3 10C2.44772 10 2 10.4477 2 11L3 11ZM16 11V10V11ZM17 12L18 12L17 12ZM17 20H16H17ZM16 20L4 20L4 22L16 22V20ZM4 20L4 11L2 11L2 20H4ZM3 12L16 12V10L3 10L3 12ZM16 12L18 12C18 10.8954 17.1046 10 16 10V12ZM4 20H4H2C2 21.1046 2.89543 22 4 22L4 20ZM16 22C17.1046 22 18 21.1046 18 20H16V22ZM16 12L16 20H18L18 12L16 12Z" fill="white"/>
<path d="M7 5L7 4C6.44772 4 6 4.44772 6 5L7 5ZM20 5V4V5ZM21 6L20 6V6H21ZM21 14H22H21ZM20 15V14V15ZM17 14C16.4477 14 16 14.4477 16 15C16 15.5523 16.4477 16 17 16V14ZM6 9C6 9.55228 6.44772 10 7 10C7.55228 10 8 9.55228 8 9H6ZM7 6L20 6V4L7 4L7 6ZM20 14H17V16H20V14ZM8 9L8 5L6 5L6 9H8ZM20 6L22 6C22 4.89543 21.1046 4 20 4V6ZM20 14V16C21.1046 16 22 15.1046 22 14H20ZM20 6V14H22V6H20Z" fill="white"/>
<path d="M10 11L8.74471 9.38606C8.55526 9.14247 8.26395 9 7.95536 9H4C3.44772 9 3 9.44772 3 10V11" stroke="white" stroke-width="2" stroke-linecap="round" stroke-linejoin="round"/>
<path d="M14 5L12.7447 3.38606C12.5553 3.14247 12.264 3 11.9554 3H8C7.44772 3 7 3.44772 7 4V5" stroke="white" stroke-width="2" stroke-linecap="round" stroke-linejoin="round"/>
</svg>
