<svg xmlns="http://www.w3.org/2000/svg" fill="#fff" width="122" height="28.772" viewBox="0 0 122 28.772"><g transform="translate(-7.878 -7.9)"><path d="M689.523,176.82H659.009a1.5,1.5,0,0,0-1.288.739l-4.814,8.381a1.478,1.478,0,0,0,0,1.478l10.063,17.434a1.485,1.485,0,0,0,1.288.739h20.018a1.471,1.471,0,0,0,1.282-.739l10.07-17.441a1.492,1.492,0,0,0,0-1.485l-4.828-8.368A1.485,1.485,0,0,0,689.523,176.82Zm-1.41,1.9-3.492,6.049h0l-3.5-6.062Zm-10.348,0-3.492,6.062-3.5-6.062Zm-18.492,0h8.137l-4.069,7.059H655.2Zm5.228,24.974-9.242-16.017H663.4l9.242,16.017Zm.522-17.013,4.069-7.059,9.242,16.017-4.069,7.059Zm10.85,17.013,3.553-6.157,3.553,6.157Zm12.8-8.056-4.069,7.059-9.249-16.017,4.069-7.059h0l9.242,16.017Zm1.105-1.912h0l-4.069-7.059h0l4.069-7.059,4.069,7.059Z" transform="translate(-644.83 -168.92)"/><path d="M85.964,21.33l1.4-5.113h.095l1.4,5.113H91.24L93.45,13.2H91.165l-1.234,5.445h-.068L88.534,13.2H86.3l-1.309,5.465H84.92L83.658,13.2H81.38l2.211,8.13Z" transform="translate(-23.661 -1.706)"/><path d="M752.1,189.185a2.97,2.97,0,0,0,.678-1.309l-2.1-.142a1.261,1.261,0,0,1-.332.522,1.6,1.6,0,0,1-.542.312,2.035,2.035,0,0,1-.678.095,1.831,1.831,0,0,1-.977-.237,1.648,1.648,0,0,1-.637-.678,2.332,2.332,0,0,1-.217-1.044h5.54v-.658a5.1,5.1,0,0,0-.292-1.811,3.389,3.389,0,0,0-.807-1.282,3.213,3.213,0,0,0-1.207-.759,4.239,4.239,0,0,0-1.5-.264,3.92,3.92,0,0,0-2.089.529,3.539,3.539,0,0,0-1.356,1.471,5.228,5.228,0,0,0,0,4.442,3.391,3.391,0,0,0,1.356,1.451,4.252,4.252,0,0,0,2.156.522,4.672,4.672,0,0,0,1.783-.285,3.3,3.3,0,0,0,1.214-.875Zm-3.994-5.323a1.825,1.825,0,0,1,1.763-.02,1.451,1.451,0,0,1,.59.59,1.634,1.634,0,0,1,.217.854H747.29a2.089,2.089,0,0,1,.231-.78A1.662,1.662,0,0,1,748.111,183.862Z" transform="translate(-674.571 -170.564)"/><path d="M766.112,188.92V178.07h-2.258v4.069h-.075a3.185,3.185,0,0,0-.427-.678,1.966,1.966,0,0,0-.739-.57,2.326,2.326,0,0,0-1.139-.237,3.024,3.024,0,0,0-1.634.475,3.391,3.391,0,0,0-1.193,1.4,5.249,5.249,0,0,0-.448,2.326,5.466,5.466,0,0,0,.427,2.306,3.166,3.166,0,0,0,1.187,1.4,3.214,3.214,0,0,0,1.689.475,2.224,2.224,0,0,0,1.092-.237,2.449,2.449,0,0,0,.739-.549,2.292,2.292,0,0,0,.448-.678h.095v1.309Zm-2.38-2.78a1.858,1.858,0,0,1-.59.827,1.41,1.41,0,0,1-.929.312,1.356,1.356,0,0,1-.9-.285,2.305,2.305,0,0,1-.536-.834,4.066,4.066,0,0,1-.19-1.261,3.743,3.743,0,0,1,.19-1.234,1.594,1.594,0,0,1,.57-.834,1.357,1.357,0,0,1,.922-.305,1.539,1.539,0,0,1,.929.285,1.817,1.817,0,0,1,.6.827,4.142,4.142,0,0,1,.19,1.261,3.437,3.437,0,0,1-.251,1.261Z" transform="translate(-678.786 -169.322)"/><path d="M774,189.846a4.068,4.068,0,0,0,2.136.522,4.448,4.448,0,0,0,2.136-.522,3.58,3.58,0,0,0,1.356-1.478,4.8,4.8,0,0,0,.481-2.183,4.6,4.6,0,0,0-.482-2.211,3.437,3.437,0,0,0-1.356-1.471,4.631,4.631,0,0,0-4.272,0,3.621,3.621,0,0,0-1.356,1.471,4.748,4.748,0,0,0-.495,2.211,4.611,4.611,0,0,0,.495,2.183A3.471,3.471,0,0,0,774,189.846Zm.617-4.943a1.757,1.757,0,0,1,.57-.882,1.492,1.492,0,0,1,1.878,0,1.952,1.952,0,0,1,.57.882,4.115,4.115,0,0,1,.19,1.261,4.205,4.205,0,0,1-.19,1.255,2.033,2.033,0,0,1-.57.882,1.356,1.356,0,0,1-.929.312,1.4,1.4,0,0,1-.949-.312,1.954,1.954,0,0,1-.57-.882,3.876,3.876,0,0,1-.19-1.254,4.072,4.072,0,0,1,.19-1.261Z" transform="translate(-683.278 -170.581)"/><path d="M733.278,203.776a3.241,3.241,0,0,0-1.214-.759,4.367,4.367,0,0,0-1.5-.258,3.933,3.933,0,0,0-2.089.522,3.519,3.519,0,0,0-1.356,1.471,4.748,4.748,0,0,0-.5,2.211,4.692,4.692,0,0,0,.5,2.231,3.349,3.349,0,0,0,1.356,1.451,4.191,4.191,0,0,0,2.163.522,4.543,4.543,0,0,0,1.783-.285,3.275,3.275,0,0,0,1.254-.882,2.908,2.908,0,0,0,.678-1.3l-2.089-.142a1.356,1.356,0,0,1-.332.522,1.5,1.5,0,0,1-.549.305,2.033,2.033,0,0,1-.678.095,1.8,1.8,0,0,1-.97-.237,1.607,1.607,0,0,1-.644-.678,2.361,2.361,0,0,1-.21-1.051h5.533V206.9a5.221,5.221,0,0,0-.285-1.8,3.391,3.391,0,0,0-.854-1.315Zm-4.435,2.306a1.939,1.939,0,0,1,.23-.78,1.682,1.682,0,0,1,1.519-.882,1.634,1.634,0,0,1,.854.217,1.431,1.431,0,0,1,.6.59,1.627,1.627,0,0,1,.21.854Z" transform="translate(-668.622 -177.269)"/><path d="M745.441,202.982h-.095a3.026,3.026,0,0,0-.427-.678,2.034,2.034,0,0,0-.739-.57,2.36,2.36,0,0,0-1.139-.237,3.045,3.045,0,0,0-1.641.475,3.221,3.221,0,0,0-1.187,1.4,5.153,5.153,0,0,0-.454,2.326,5.467,5.467,0,0,0,.427,2.306,3.092,3.092,0,0,0,2.875,1.878,2.407,2.407,0,0,0,1.119-.237,2.562,2.562,0,0,0,.739-.549,2.389,2.389,0,0,0,.448-.678h.075v1.309h2.231V198.88h-2.258Zm-.115,3.967a1.8,1.8,0,0,1-.6.834,1.431,1.431,0,0,1-.929.305,1.356,1.356,0,0,1-.9-.285,2.2,2.2,0,0,1-.57-.854,4.244,4.244,0,0,1-.19-1.261,3.967,3.967,0,0,1,.19-1.234,1.682,1.682,0,0,1,.57-.827,1.356,1.356,0,0,1,.929-.312,1.553,1.553,0,0,1,.929.285,1.844,1.844,0,0,1,.59.834,3.872,3.872,0,0,1,.19,1.254,3.391,3.391,0,0,1-.19,1.261Z" transform="translate(-672.85 -176.021)"/><path d="M759.44,207.619a1.77,1.77,0,0,1-.21.909,1.356,1.356,0,0,1-.57.57,1.8,1.8,0,0,1-.766.19,1.3,1.3,0,0,1-1.017-.427,1.735,1.735,0,0,1-.38-1.146v-4.747h-2.258v5.16a3.464,3.464,0,0,0,.353,1.634,2.712,2.712,0,0,0,.977,1.044,2.55,2.55,0,0,0,1.424.387,2.712,2.712,0,0,0,1.546-.434,2.5,2.5,0,0,0,.9-1.139h.095V211.1H761.7V202.96H759.44Z" transform="translate(-677.513 -177.335)"/><path d="M772.684,208.808a1.722,1.722,0,0,1-.522.475,1.356,1.356,0,0,1-.678.163,1.539,1.539,0,0,1-.929-.285,1.756,1.756,0,0,1-.617-.827,3.755,3.755,0,0,1-.21-1.356,3.567,3.567,0,0,1,.21-1.3,2.162,2.162,0,0,1,.617-.834,1.417,1.417,0,0,1,.9-.285,1.458,1.458,0,0,1,1,.38,1.688,1.688,0,0,1,.475.976h2.136a3.479,3.479,0,0,0-.522-1.641,3.133,3.133,0,0,0-1.261-1.092,4.665,4.665,0,0,0-3.987.142,3.54,3.54,0,0,0-1.356,1.471,4.909,4.909,0,0,0-.475,2.183,5,5,0,0,0,.475,2.19,3.75,3.75,0,0,0,1.356,1.471,4.028,4.028,0,0,0,2.136.522,4.381,4.381,0,0,0,1.926-.38,3.106,3.106,0,0,0,1.248-1.065,3.39,3.39,0,0,0,.5-1.641h-2.136a1.844,1.844,0,0,1-.285.732Z" transform="translate(-681.772 -177.283)"/><path d="M786.5,203.524a3.14,3.14,0,0,0-1.119-.5,4.673,4.673,0,0,0-1.3-.169,4.814,4.814,0,0,0-1.716.285,2.943,2.943,0,0,0-1.207.834,2.672,2.672,0,0,0-.617,1.282l2.089.17a1.3,1.3,0,0,1,.475-.678,1.668,1.668,0,0,1,.976-.264,1.3,1.3,0,0,1,.9.285,1,1,0,0,1,.305.787h0a.38.38,0,0,1-.19.38,2.177,2.177,0,0,1-.637.19q-.427.075-1.139.142a6.415,6.415,0,0,0-1.146.19,3.3,3.3,0,0,0-.97.427,1.858,1.858,0,0,0-.678.739,2.441,2.441,0,0,0-.237,1.139,2.353,2.353,0,0,0,.359,1.356,2.115,2.115,0,0,0,.949.814,3.608,3.608,0,0,0,1.356.258c.38,0,.739-.068,1.071-.095a2.319,2.319,0,0,0,.78-.454,1.912,1.912,0,0,0,.522-.678h.075v1.126h2.149v-5.486a2.6,2.6,0,0,0-.285-1.241A2.251,2.251,0,0,0,786.5,203.524Zm-1.214,4.611a1.41,1.41,0,0,1-.21.759,1.465,1.465,0,0,1-.6.549,2.1,2.1,0,0,1-.875.19,1.309,1.309,0,0,1-.834-.237.875.875,0,0,1-.332-.712.746.746,0,0,1,.169-.522,1.1,1.1,0,0,1,.448-.332,2.61,2.61,0,0,1,.678-.2l.4-.068.454-.075a1.731,1.731,0,0,0,.4-.095.678.678,0,0,0,.285-.115Z" transform="translate(-685.898 -177.302)"/><path d="M797.151,208.391a1.539,1.539,0,0,1-.305,0,1.045,1.045,0,0,1-.407-.068.516.516,0,0,1-.258-.237.814.814,0,0,1-.095-.475v-3.947h1.519v-1.688h-1.519V200.03h-2.258v1.946H792.71v1.688h1.119V207.9a2.32,2.32,0,0,0,.332,1.356,2.083,2.083,0,0,0,.949.787,3.337,3.337,0,0,0,1.424.21,5.193,5.193,0,0,0,.739-.095c.21-.047.353-.095.475-.115l-.359-1.688C797.341,208.364,797.246,208.364,797.151,208.391Z" transform="translate(-689.897 -176.391)"/><path d="M804.021,198.362a1.261,1.261,0,0,0-1.709,0,1.091,1.091,0,0,0-.353.807,1.071,1.071,0,0,0,.353.807,1.261,1.261,0,0,0,1.709,0,1.078,1.078,0,0,0,.359-.807,1.057,1.057,0,0,0-.359-.807Z" transform="translate(-692.875 -175.747)"/><rect width="2.258" height="8.124" transform="translate(109.18 25.612)"/><path d="M813.729,203.312a4.645,4.645,0,0,0-4.279,0,3.627,3.627,0,0,0-1.356,1.478,4.746,4.746,0,0,0-.495,2.2,4.659,4.659,0,0,0,.495,2.19,3.52,3.52,0,0,0,1.356,1.471,4.645,4.645,0,0,0,4.279,0,3.607,3.607,0,0,0,1.356-1.471,4.829,4.829,0,0,0,.475-2.19,4.632,4.632,0,0,0-.475-2.2,3.391,3.391,0,0,0-1.356-1.478Zm-.617,4.923a1.9,1.9,0,0,1-.57.875,1.57,1.57,0,0,1-1.878,0,1.953,1.953,0,0,1-.57-.875,4.145,4.145,0,0,1-.19-1.234,4.244,4.244,0,0,1,.19-1.261,1.8,1.8,0,0,1,.57-.875,1.47,1.47,0,0,1,1.878,0,1.879,1.879,0,0,1,.57.875A3.945,3.945,0,0,1,813.3,207a4.069,4.069,0,0,1-.183,1.234Z" transform="translate(-694.69 -177.28)"/><path d="M828.707,204.213a2.455,2.455,0,0,0-.97-1.044,2.773,2.773,0,0,0-1.478-.38,2.665,2.665,0,0,0-1.539.407,2.238,2.238,0,0,0-.909,1.112h-.088v-1.424H821.58v8.137h2.258v-4.7a2.121,2.121,0,0,1,.169-.9,1.234,1.234,0,0,1,.542-.57,1.73,1.73,0,0,1,.807-.19,1.356,1.356,0,0,1,1.071.427,1.62,1.62,0,0,1,.38,1.16v4.821h2.258v-5.181A3.513,3.513,0,0,0,828.707,204.213Z" transform="translate(-699.19 -177.279)"/></g></svg>